<svg xmlns="http://www.w3.org/2000/svg" width="393" height="170"><path d="M334 138c2.69.176 5.329.618 8 1l2 5 3-1a60.633 60.633 0 0 1 4.133.043c12.429.383 12.429.383 23.867-4.043 5.386-1.683 10.038-.5 15 2 2 3 2 3 1.688 5.125L391 149c-.383 2.995-.692 5.997-1 9h3l-1 5c-4.645 1.737-9.157 2.536-14.063 3.063-5.392.587-5.392.587-10.726 1.554-3.12.54-5.318-.473-8.211-1.617l-1 4h-16v-4l-3.125 1c-3.965 1.13-7.689 1.588-11.734.5-8.405-1.963-17.753-.24-26.202.876-4.824.59-9.148.524-13.964-.13-2.97-.37-5.857-.176-8.834.012C276 168 276 168 274.067 166.502c-4.671-2.288-9.144-1.87-14.274-1.795l-3.274.013c-3.444.017-6.888.054-10.332.093-2.337.015-4.675.028-7.013.04-5.725.034-11.45.084-17.174.147l-1 3h-8l-1-4-2.527.691c-5.902 1.508-10.853 2.665-16.875 1.641-3.66-.468-7.287-.458-10.973-.457l-2.13-.013c-3.104.008-5.528.149-8.495 1.138-1.971.072-3.945.084-5.918.063l-3.553-.024-7.375-.078c-6.176-.04-12.045.162-18.154 1.039-2 .061-4 .087-6 .063l-2.875-.028L125 168l-1-3-2.875.438c-1.375.19-2.75.377-4.125.562l-2.07.291c-7.616.927-15.094.572-22.743.209-2.568-.12-5.137-.235-7.707-.344l-3.409-.162C78.163 166 75.774 166.13 73 167l-2 3c-3.258.293-3.258.293-7.125.188l-3.883-.083L57 170l-1-3c-4.268-.025-8.537-.043-12.805-.055a1694.75 1694.75 0 0 1-4.347-.02c-9.354-.139-9.354-.139-18.66.641C17 168 17 168 14 167c-2.8-.228-5.6-.38-8.406-.523-3.016-.555-3.76-1.075-5.594-3.477-.34-2.268-.34-2.268-.293-4.887l.03-2.842c.024-.976.05-1.952.076-2.958l.04-2.995c.036-2.44.085-4.879.147-7.318 6.026-1.992 8.294-1.853 14 1 2.779.691 2.779.691 5 1l1-4c9.127-1.603 9.127-1.603 12.625.813C34 143 34 143 34 145h7l1-5h14v3l2.52-.07 3.292-.055 3.27-.07C68 143 68 143 71 145l2-1c2-.04 4-.043 6 0l1-4 8-1 1 2 2.484-.07 3.266-.055 3.234-.07c2.94.19 4.54.668 7.016 2.195v2l2.508-.992c3.874-1.118 7.38-1.233 11.367-1.133l2.086.027c1.68.024 3.36.06 5.039.098l1 2 2.152-.969c3.756-1.36 7.266-1.467 11.227-1.687 2.659-.349 4.28-1.1 6.621-2.344 4.099-.335 5.512-.325 9 2 3.25.467 3.25.467 6.938.625l2.004.113c10.319 1.179 10.319 1.179 20.058-.738 5.538-.23 5.538-.23 8 1l2-4c4.75.75 4.75.75 7 3 1.941.033 3.884.057 5.824.004 3.134-.006 6.088.481 9.176.996v-2l2.168.219c9.892.921 19.661 1.303 29.532.02 8.095-.84 16.285-.056 24.363.636l3.162.238 2.998.254 2.71.222L284 143l1 2 3-2c2.42-.243 2.42-.243 5.254-.23l3.088.005 3.22.037 3.233.002c7.924.046 7.924.046 10.205 1.186l1-4c1.458-.054 2.916-.093 4.375-.125l2.46-.07C323 140 323 140 325 142c2.323.4 4.657.74 7 1l.438-1.938C333 139 333 139 334 138zm-251 6c-1.46 2.647-2 3.894-2 7h-4v7h4v2l-5-1-1-11c-2.272 1.837-2.272 1.837-2.195 4.602l.07 3.023.055 3.04L73 161c3.366 1.262 6.18.763 9.672.258 4.409-.488 8.837-.32 13.266-.258 1.884.025 3.768.046 5.652.063l2.496.035c1.923.116 1.923.116 2.914-1.098.28-2.059.447-4.117.621-6.188L108 152l2-1v9h6v-2h-4v-2l4-1v-5c-4.053-.982-7.839-1.082-12-1l-1-5-.813 1.938C101 148 101 148 98 149v9h-2v-12l-2.688.938A61.905 61.905 0 0 1 85 149v-5h-2zm295 0-.375 1.938L377 148l-2 1v5h-2l-1-5-2 1v4h-2v-5h-2v7h2v4h2v-4h3v4h2v-4h2l1 4 3-1 1-11h-2v-4h-2zm-333 1c-1.705 1.94-1.705 1.94-3 4l1 2h-3v7h3v2h-5v-8l-2-1v5h-3v2h3l1 3c5.016 1.018 9.786 1.119 14.875 1.063l2.375-.014c1.917-.012 3.833-.03 5.75-.049l.438 1.938c.372 2.037.372 2.037 1.562 3.062h8l-1-18c-2.708-1.354-4.854-1.096-7.875-1.063l-3.18.028L55 148h-7v-3h-3zm291-2c-.988 3.946-.962 7.274-.563 11.313l.31 3.238L336 160h-6v-7h4v-2h-4l-1-3c-1.286 1.06-1.286 1.06-1.098 3.504l.036 3.059.027 3.066L328 160l-6-1v-9l-3 1 1 9h-3v-9l-2-1v10h-2v-11l-1 2h-3v9h-2v-11h-2v11h-2v-12h-8v15l2 1v-4l1.754.493c3.612.815 7.265.628 10.95.605l2.538-.005c2.67-.005 5.339-.018 8.008-.03 1.812-.006 3.625-.01 5.438-.014 4.437-.011 8.875-.028 13.312-.049l-2-1 1-17h-2zm-99 6v11h2v-8h3v8h2v-8h3v8h2v-11h-12zm109 0c-1.206.983-1.206.983-1.098 2.848l.036 2.214L345 158h5v5h-4l1 3 5-1v-16h-6zm-173 1v10h2v-10h-2zm-47 2 1 7h2l-2-7h-1z" fill="#CFC64E"/><path d="M187 4c2.625.375 2.625.375 5 1 .082 3.044-.024 5.072-1 8a90.028 90.028 0 0 0 3.688 7.438l1.068 2.025c1.986 3.663 3.852 7 7.244 9.537 2.448.714 2.448.714 5 0 4.814-3.587 9.954-8.185 11.625-14.125L220 15h4c.688 1.688.688 1.688 1 4l-3 5-5 22h-55c-1.597-3.195-2.456-5.421-3.219-8.809l-.636-2.763-.645-2.865c-.423-1.875-.85-3.749-1.281-5.622l-.565-2.51c-.693-2.577-1.618-4.973-2.654-7.431l5-1 .375 2.25c1.47 6.468 5.55 10.665 10.625 14.75 3.046 1.417 3.046 1.417 6 0 5.218-5.02 9.855-12.063 12-19-.18-2.797-.817-4.409-2-7l2-2z" fill="#EEE004"/><path d="M195 75h6v2l1.563-1c4.02-1.65 7.854-1.65 11.875 0L216 77l3-2c3.432-.438 5.263-.49 8.176 1.445 2.724 3.816 2.26 7.243 2.074 11.805l-.055 2.547A434.108 434.108 0 0 1 229 97h-6l-1-16-5-1-1 17h-7l-1-15-4-1c-1.996 1.996-1.41 5.817-1.563 8.563l-.13 2.154c-.107 1.76-.207 3.522-.307 5.283h-7V75z" fill="#070EEA"/><path d="m126 75 3 2v-2h6c.145 4.395.234 8.79.313 13.188l.126 3.775c.123 9.126.123 9.126-2.501 13.38-3.684 2.078-6.045 2.166-10.25 1.97l-3.801-.137L116 107v-5l2.082-.043c2.725-.144 5.256-.348 7.918-.957 2.213-2.373 2.213-2.373 3-5l-3 2c-3.093.168-6.005-.218-9-1-2.75-2.578-3.835-5.307-4.203-9.086-.099-4.813.035-8.015 3.203-11.914 3.127-1.564 6.58-1.4 10-1zm-5.813 6.125c-1.739 2.747-1.585 4.693-1.187 7.875 1.063 1.98 1.063 1.98 3 3 2.543.5 2.543.5 5 0 2.449-3.673 2.315-5.664 2-10-1.822-2.23-1.822-2.23-4.438-2.313-2.55.13-2.55.13-4.374 1.438z" fill="#070EE6"/><path d="M249 67h6v11c2.82-2.664 4.938-4.888 6.813-8.313C264 67 264 67 266.026 66.621c2.223.004 2.223.004 5.973.379-1.382 4.03-3.357 6.696-6 10-1.554 2.208-1.554 2.208-2 5 1.362 2.505 2.64 4.474 4.375 6.688C273 94.816 273 94.816 273 97c-4.912.965-4.912.965-8 0-8-8.23-8-8.23-8-13h-2v13h-6V67z" fill="#0710DE"/><path d="M156 65h6v32l-8.75.313-2.737.137c-5.932.103-5.932.103-9.029-2.845C139.066 90.361 138.67 87.97 139 83c1.178-3.122 2.086-5.256 4.688-7.375 3.48-.94 6.712-.745 10.312-.625v2h2V65zm-8.125 16.063c-2.243 1.92-2.243 1.92-2.25 5.5.019 3.498.019 3.498 2.375 5.437 2.81.36 4.382.383 6.813-1.125C156.57 88.1 156.468 86.211 156 83c-2.818-2.818-4.45-3.775-8.125-1.938z" fill="#080DE7"/><path d="M48 67h6v12c4.535-3.15 6.476-6.222 9-11 1-1 1-1 2.848-1.098L72 67a2009.722 2009.722 0 0 1-3.375 5.375l-1.898 3.023C65 78 65 78 63 80c.343 3.364 1.849 5.359 3.938 7.938C69.209 90.852 70.885 93.431 72 97c-2.791.183-5.247.334-8 0-1.75-1.563-1.75-1.563-3-4l-1.059-1.754C57 86.371 57 86.371 57 84l-2 1c-.469 2.816-.469 2.816-.625 6.063l-.227 3.347L54 97h-6V67z" fill="#050CDC"/><path d="M303 65h6v32c-5 0-5 0-7-1l-2 1c-7.217.582-7.217.582-10.438-1.813-2.842-3.98-2.886-7.41-2.562-12.187 1.577-3.98 2.41-5.607 6-8 3.023-.261 5.959-.088 9 0l1-10zm-9 15a430.695 430.695 0 0 0-.563 4.313l-.316 2.425c-.269 2.43-.269 2.43.879 5.262h8c1.081-6.06 1.081-6.06 0-12h-8z" fill="#040CE7"/><path d="M184 75c2.934 1.796 4.472 2.944 6 6 .645 5.207.917 8.817-2.375 13.063-4.745 3.502-8.828 3.62-14.625 2.937-2.934-1.796-4.472-2.944-6-6-.528-4.889-.73-8.767 1.813-13.063 4.312-3.819 9.7-3.593 15.187-2.937zm-9.875 7.688c-1.426 2.931-1.167 4.265-.125 7.312l2 2c3.826-.188 3.826-.188 7-2 .25-3.458.25-3.458 0-7-1.825-2.219-1.825-2.219-4.438-2.375-2.657.147-2.657.147-4.437 2.063z" fill="#0B12E9"/><path d="M162 50h54v6h-54v-6z" fill="#F2EE00"/><path d="M88 75h6v2l2-1c2.277-.273 2.277-.273 4.938-.375l2.652-.148C106 76 106 76 107.805 78.004c1.524 3.82 1.523 7.27 1.382 11.308l-.04 2.245c-.036 1.814-.09 3.629-.147 5.443h-6l-.184-2.992-.254-3.883-.246-3.867c-.108-3.141-.108-3.141-1.316-5.258h-5c-1.48 2.962-1.353 5.835-1.563 9.125l-.253 3.883L94 97h-6V75z" fill="#0209E2"/><path d="M83 144h2v5c4.278-.494 7.096-1.048 11-3v12h2v-9l3-1c1.209-2 1.209-2 2-4l.375 2.438L104 149l2 1v11c-3.458.027-6.917.047-10.375.063l-2.984.025-2.852.01-2.634.016C85 161 85 161 83 160v-16z" fill="#767488"/><path d="m328 75 1 5h-8c1.5 3 4.052 3.556 7 5 2 2 2 2 2.375 5.438C330 94 330 94 328.335 95.71c-2.899 1.6-4.795 1.594-8.085 1.477l-2.984-.083L315 97l-1-5h9l-1-3-3.5-1.25C315 86 315 86 313.812 82.562c.188-3.562.188-3.562 1.5-6 4.092-2.378 8.065-1.88 12.688-1.562z" fill="#0C16DC"/><path d="M46 145h2v3h7l2.563-.063C60 148 60 148 61 149c.072 1.853.084 3.708.063 5.563l-.028 3.066L61 160h-2v-9h-2l.035 1.934.028 2.504.035 2.496C57 160 57 160 56 161c-1.497.098-3 .13-4.5.125l-2.469.008C47 161 47 161 46 160a84.566 84.566 0 0 1-.5-4.375c-.255-2.798-.603-4.933-1.5-7.625h2v-3z" fill="#75738A"/><path d="M198 112c10.49-.37 10.49-.37 12.828 1.328 1.85 2.639 1.619 4.543 1.172 7.672-1.625 2.375-1.625 2.375-4 4-3.25.25-3.25.25-6 0v8h-4v-21zm4 2v8h5v-7l-5-1z" fill="#1225F6"/><path d="m111.164 111.805 2.461.07 2.477.055L118 112v3h-6v4c1.534 1.316 1.534 1.316 3.5 2.313 1.934 1.257 1.934 1.257 3.5 2.687.563 3.688.563 3.688 0 7-2 2-2 2-4.383 2.195l-2.742-.07-2.758-.055L107 133l-1-3 3.375.063c3.457.2 3.457.2 5.625-1.063-1.338-4.014-3.524-4.73-7-7-2-3-2-3-1.75-5.563.933-3.033 1.64-4.337 4.914-4.632z" fill="#0F1CEA"/><path d="M76 75h6v22h-6V75z" fill="#0208E8"/><path d="M132 117c2.467 2.22 2.962 3.436 3.188 6.75L135 126h-9l2 4h7l-1 3c-1.437.081-2.874.14-4.313.188l-2.425.105C125 133 125 133 123.234 131.766c-2.291-3.278-1.848-6.945-1.234-10.766 2.636-4.157 5.213-4.815 10-4zm-5 3-1 4h5l-1-4h-3z" fill="#192CDC"/><path d="M257.563 116.375C261 117 261 117 262.938 119.25 264 122 264 122 264 126c-3.473 1.158-6.36 1.069-10 1v2c3.058.544 5.888 1 9 1l-1 3c-8.185.618-8.185.618-11.063-1.563-1.307-3.398-1.381-5.822-.937-9.437 2.106-3.96 3.109-4.844 7.563-5.625zM254 119v5h6v-5h-6z" fill="#2838F4"/><path d="M223 117c6.055-.195 6.055-.195 8 0 2 2 2 2 2.195 5.258l-.07 3.867-.055 3.883L233 133c-1.646.027-3.292.046-4.938.063l-2.777.035C223 133 223 133 222 132c-.04-2.333-.042-4.667 0-7l2.938-.813L228 123l1-3-7 1 1-4zm3 9-1 4 2 1 2-1v-4h-3z" fill="#1728DD"/><path d="M172 117c1.938 1.125 1.938 1.125 3 3 .188 3.188.188 3.188 0 6h-9l2 4h6v3c-1.437.081-2.874.14-4.313.188l-2.425.105C165 133 165 133 163.23 131.766c-2.281-3.275-1.72-6.946-1.23-10.766 2.028-4.89 5.093-4.613 10-4zm-5 3-1 4h6l-1-4h-4z" fill="#1F2FE4"/><path d="M378 144h2v4h2l-1 11-3 1-1-4h-2v4h-2v-4h-3v4h-2v-4h-2v-7h2v5h2l1-5 2 1v4h2v-5l2-1c.652-2.025.652-2.025 1-4z" fill="#4245B9"/><path d="m336 143 2 1-1 16 2 1h-25l1-11 2 1v9h3l-1-9 3-1v9l6 1v-11l2-1v3h4v2h-4v7h6l-.254-2.703-.308-3.547-.317-3.516c-.103-2.753.017-4.654.879-7.234z" fill="#E2DB0E"/><path d="M277 75h5v22h-5V75z" fill="#0203D3"/><path d="M61 148h2v10h4v5h-4v3h6l1-4v5c-6.055.195-6.055.195-8 0l-2-2v-3h-6l2-2c.46-2.203.46-2.203.625-4.625l.227-2.477L57 151h2v9h2v-12zM45 145l1 3h-2l2 3c.414 2.262.414 2.262.625 4.688l.227 2.449L47 160l7 1v1c-11.522.185-11.522.185-17-1l-1-3h-3v-2h3v-5l2 1v8h5v-2h-3v-7h3l-1-3 3-3z" fill="#E4DB26"/><path d="m247 117 1 4-2.375-.125c-2.786-.162-2.786-.162-4.625 2.125.322 3.1.322 3.1 1 6 2.076.553 3.844 1 6 1l-1 3c-5.216.428-5.216.428-8 0-2.063-2.063-2.063-2.063-3-5 .126-3.577.627-6.192 2.125-9.438 2.834-2.36 5.321-1.83 8.875-1.562z" fill="#172AEC"/><path d="M295 148c2-.043 4-.04 6 0 1 1 1 1 1.098 3.285l-.036 2.778-.027 2.785L302 159l-5 1-1 4c-1-1-1-1-1.098-4.379.007-1.394.019-2.789.036-4.184l.013-2.154c.012-1.76.03-3.522.049-5.283z" fill="#67679C"/><path d="m148 117 1 4-2.938-.063c-2.937-.293-2.937-.293-4.062 1.063-.04 2.333-.042 4.667 0 7l7 1-1 3c-6.055.195-6.055.195-8 0-2.602-2.602-2.298-3.824-2.313-7.438l-.05-2.933C138 120 138 120 139.289 118.164c2.758-1.876 5.484-1.347 8.711-1.164z" fill="#1020EE"/><path d="M346 149h6v16l-5 1-1-3h4v-5h-5c-.098-6.152-.098-6.152 0-8l1-1z" fill="#5B59AC"/><path d="M82 147h1v13c-6.75 2.25-6.75 2.25-10 1a444.403 444.403 0 0 1-.125-5.375l-.07-3.023C73 150 73 150 75 148l1 11 5 1v-2h-4v-7h4l1-4z" fill="#E9DD28"/><path d="M301 148h2v12h2v-11h2v11h2v-9h3l1-2 1 12h-13v-13z" fill="#E2DB0E"/><path d="m63 148 6 1v17h-6v-3h4v-5h-4v-10z" fill="#6062A8"/><path d="M237 149h12v11h-2v-8h-3v8h-2v-8h-3v8h-2v-11z" fill="#3441C0"/><path d="M214 112h4v21h-4v-21z" fill="#0325E4"/><path d="m108.031 148.867 2.469.008 2.469-.008C115 149 115 149 116 150c.04 1.666.043 3.334 0 5l-4 1v2h4v2h-6v-9l-2 1c-.465 1.895-.465 1.895-.625 4.063L107 160h-2a757.916 757.916 0 0 1-.063-4.938l-.035-2.777c.125-2.922.217-3.227 3.13-3.418z" fill="#5454B2"/><path d="M180 113h3v5h4v2h-4c.114 1.647.241 3.292.375 4.938.07.916.14 1.833.21 2.777.138.754.274 1.508.415 2.285l2 1v2c-1.666.043-3.334.04-5 0-1-1-1-1-1.098-3.723l.036-3.34.027-3.347L180 120h-3v-2h3v-5z" fill="#060FE1"/><path d="M161 117c-.313 1.938-.313 1.938-1 4l-3 1-1 11h-4v-15c5-1 5-1 9-1z" fill="#1029F5"/><path d="M279.563 64.938 282 65a88.406 88.406 0 0 1 1 5c-1 1-1 1-3.563 1.063L277 71a88.406 88.406 0 0 1-1-5c1-1 1-1 3.563-1.063z" fill="#0513F2"/><path d="M76 65h6v6h-6v-6z" fill="#070EF7"/><path d="M152 101h6v1h-6v-1zM238 9h2l-1 2-1-2zM181 60l2 1zM213 59l2 1z" fill="#FFF"/></svg>